# xmcd CD database file
#
# Track frame offsets:
#	180
#	11994
#	30757
#	50480
#	74805
#	103179
#	123700
#	147927
#
# Disc length: 2206 seconds
#
# Revision: 0
# Processed by: cddbd v1.5.2PL0 Copyright (c) Steve Scherf et al.
# Submitted via: CDex 1.51
#
DISCID=76089c08
DTITLE=Greg Adams - The Promise
DYEAR=1998
DGENRE=Jazz
TTITLE0=Just Friends
TTITLE1=Summertime
TTITLE2=Stormy Monday
TTITLE3=Blues Sketch
TTITLE4=A Train
TTITLE5=Unforgettable
TTITLE6=Misty
TTITLE7=We Love Him
EXTD=YEAR: 1998
EXTT0=
EXTT1=
EXTT2=
EXTT3=
EXTT4=
EXTT5=
EXTT6=
EXTT7=
PLAYORDER=
